{
  "accessors": [
    {
      "bufferView": 2,
      "componentType": 5126,
      "count": 10193,
      "max": [
        65.3360366821289,
        103.6639404296875,
        258.16326904296875
      ],
      "min": [
        -65.6624984741211,
        -282.7656555175781,
        -0.3125372529029846
      ],
      "type": "VEC3"
    },
    {
      "bufferView": 2,
      "byteOffset": 122316,
      "componentType": 5126,
      "count": 10193,
      "max": [
        1.0,
        1.0,
        1.0
      ],
      "min": [
        -1.0,
        -1.0,
        -1.0
      ],
      "type": "VEC3"
    },
    {
      "bufferView": 1,
      "componentType": 5126,
      "count": 10193,
      "max": [
        0.98779296875,
        0.9900054931640625
      ],
      "min": [
        0.0099945068359375,
        0.01025390625
      ],
      "type": "VEC2"
    },
    {
      "bufferView": 1,
      "byteOffset": 81544,
      "componentType": 5126,
      "count": 10193,
      "max": [
        0.99658203125,
        0.9980010986328125
      ],
      "min": [
        0.0019989013671875,
        0.00244140625
      ],
      "type": "VEC2"
    },
    {
      "bufferView": 1,
      "byteOffset": 163088,
      "componentType": 5126,
      "count": 10193,
      "max": [
        0.990234375,
        0.9921875
      ],
      "min": [
        0.0078125,
        0.0087890625
      ],
      "type": "VEC2"
    },
    {
      "bufferView": 0,
      "componentType": 5125,
      "count": 23358,
      "type": "SCALAR"
    }
  ],
  "asset": {
    "extras": {
      "author": "Kamran Mughal (https://sketchfab.com/absologixemployee)",
      "license": "CC-BY-4.0 (http://creativecommons.org/licenses/by/4.0/)",
      "source": "https://sketchfab.com/3d-models/warehouse-forklift-gameready-94e21059f00c4e989c6403ada034516e",
      "title": "Warehouse Forklift Gameready"
    },
    "generator": "Sketchfab-15.68.0",
    "version": "2.0"
  },
  "bufferViews": [
    {
      "buffer": 0,
      "byteLength": 93432,
      "name": "floatBufferViews",
      "target": 34963
    },
    {
      "buffer": 0,
      "byteLength": 244632,
      "byteOffset": 93432,
      "byteStride": 8,
      "name": "floatBufferViews",
      "target": 34962
    },
    {
      "buffer": 0,
      "byteLength": 244632,
      "byteOffset": 338064,
      "byteStride": 12,
      "name": "floatBufferViews",
      "target": 34962
    }
  ],
  "buffers": [
    {
      "byteLength": 582696,
      "uri": "scene.bin"
    }
  ],
  "extensionsUsed": [
    "KHR_materials_specular"
  ],
  "images": [
    {
      "uri": "textures/ForkLift_01_baseColor.png"
    },
    {
      "uri": "textures/ForkLift_01_metallicRoughness.png"
    },
    {
      "uri": "textures/ForkLift_01_specularf0.png"
    }
  ],
  "materials": [
    {
      "doubleSided": true,
      "extensions": {
        "KHR_materials_specular": {
          "specularColorFactor": [
            1.0,
            1.0,
            1.0
          ],
          "specularFactor": 1.0,
          "specularTexture": {
            "index": 2
          }
        }
      },
      "name": "ForkLift_01",
      "pbrMetallicRoughness": {
        "baseColorTexture": {
          "index": 0
        },
        "metallicFactor": 0.5470492862454438,
        "metallicRoughnessTexture": {
          "index": 1
        },
        "roughnessFactor": 0.29104850605258986
      }
    }
  ],
  "meshes": [
    {
      "name": "ForkLift_ForkLift_01_0",
      "primitives": [
        {
          "attributes": {
            "NORMAL": 1,
            "POSITION": 0,
            "TEXCOORD_0": 2,
            "TEXCOORD_1": 3,
            "TEXCOORD_2": 4
          },
          "indices": 5,
          "material": 0,
          "mode": 4
        }
      ]
    }
  ],
  "nodes": [
    {
      "children": [
        1
      ],
      "matrix": [
        1.0,
        0.0,
        0.0,
        0.0,
        0.0,
        2.220446049250313e-16,
        -1.0,
        0.0,
        0.0,
        1.0,
        2.220446049250313e-16,
        0.0,
        0.0,
        0.0,
        0.0,
        1.0
      ],
      "name": "Sketchfab_model"
    },
    {
      "children": [
        2
      ],
      "matrix": [
        0.02539999969303608,
        0.0,
        0.0,
        0.0,
        0.0,
        0.0,
        0.02539999969303608,
        0.0,
        0.0,
        -0.02539999969303608,
        0.0,
        0.0,
        0.0,
        0.0,
        0.0,
        1.0
      ],
      "name": "6c99eac7333e4cdab3710ee62ba80957.fbx"
    },
    {
      "children": [
        3
      ],
      "name": "RootNode"
    },
    {
      "children": [
        4
      ],
      "matrix": [
        1.0,
        0.0,
        0.0,
        0.0,
        0.0,
        2.220446049250313e-16,
        -1.0,
        0.0,
        0.0,
        1.0,
        2.220446049250313e-16,
        0.0,
        -0.06426413357257843,
        50.758018493652344,
        35.25624084472656,
        1.0
      ],
      "name": "ForkLift"
    },
    {
      "children": [
        5
      ],
      "matrix": [
        0.3937007784843445,
        0.0,
        -0.0,
        0.0,
        0.0,
        0.3937007784843445,
        0.0,
        0.0,
        0.0,
        0.0,
        0.3937007784843445,
        0.0,
        0.06426413357257843,
        35.25624084472656,
        -50.758026123046875,
        1.0
      ],
      "name": "Object_4"
    },
    {
      "mesh": 0,
      "name": "ForkLift_ForkLift_01_0"
    }
  ],
  "samplers": [
    {
      "magFilter": 9729,
      "minFilter": 9987,
      "wrapS": 10497,
      "wrapT": 10497
    }
  ],
  "scene": 0,
  "scenes": [
    {
      "name": "Sketchfab_Scene",
      "nodes": [
        0
      ]
    }
  ],
  "textures": [
    {
      "sampler": 0,
      "source": 0
    },
    {
      "sampler": 0,
      "source": 1
    },
    {
      "sampler": 0,
      "source": 2
    }
  ]
}
